# xmcd
#
# Track frame offsets:
#	150
#	18729
#	46070
#	70632
#	93339
#	122401
#	160305
#
# Disc length: 2395 seconds
#
# Revision: 0
# Processed by: cddbd v1.5.2PL0 Copyright (c) Steve Scherf et al.
# Submitted via: dBpowerAMP V4.0
#
DISCID=4e095907
DTITLE=Mudflap Nichols And The Twisted Spokes - EP
DYEAR=2013
DGENRE=Blues
TTITLE0=Cuz Of Muddy
TTITLE1=Oil Can Jam
TTITLE2=She Did You A Favor
TTITLE3=Champagne And Reefer
TTITLE4=Crosseyed Cat
TTITLE5=Story Of My Life
TTITLE6=Tired
EXTD=
EXTT0=
EXTT1=
EXTT2=
EXTT3=
EXTT4=
EXTT5=
EXTT6=
PLAYORDER=
